<svg xmlns="http://www.w3.org/2000/svg" xmlns:xlink="http://www.w3.org/1999/xlink" viewBox="0 0 466 464"><defs><style>.cls-1{fill:url(#linear-gradient);}.cls-2{fill:url(#linear-gradient-2);}.cls-3{fill:url(#linear-gradient-3);}.cls-4{fill:url(#linear-gradient-4);}.cls-5{fill:url(#linear-gradient-5);}.cls-6{fill:url(#linear-gradient-6);}.cls-10,.cls-7,.cls-8,.cls-9{fill:none;}.cls-10,.cls-11,.cls-12,.cls-7,.cls-8,.cls-9{stroke-miterlimit:10;}.cls-10,.cls-12,.cls-7,.cls-8,.cls-9{stroke-width:10px;}.cls-7{stroke:url(#linear-gradient-7);}.cls-8{stroke:url(#linear-gradient-8);}.cls-9{stroke:url(#linear-gradient-9);}.cls-10{stroke:url(#linear-gradient-10);}.cls-11{fill:url(#linear-gradient-11);stroke:url(#linear-gradient-12);}.cls-12{fill:#fff;stroke:#fff;}</style><linearGradient id="linear-gradient" x1="219.32" y1="194.02" x2="466" y2="194.02" gradientUnits="userSpaceOnUse"><stop offset="0" stop-color="#05386b"/><stop offset="0.41" stop-color="#2c807e"/><stop offset="0.81" stop-color="#4ec28e"/><stop offset="1" stop-color="#5cdb95"/></linearGradient><linearGradient id="linear-gradient-2" x1="108.11" y1="88.17" x2="411.49" y2="88.17" xlink:href="#linear-gradient"/><linearGradient id="linear-gradient-3" x1="55.75" y1="376.36" x2="357.02" y2="376.36" xlink:href="#linear-gradient"/><linearGradient id="linear-gradient-4" x1="274.81" y1="306.57" x2="443.6" y2="306.57" xlink:href="#linear-gradient"/><linearGradient id="linear-gradient-5" x1="21.81" y1="157.77" x2="191.55" y2="157.77" xlink:href="#linear-gradient"/><linearGradient id="linear-gradient-6" x1="0" y1="271.05" x2="246.05" y2="271.05" xlink:href="#linear-gradient"/><linearGradient id="linear-gradient-7" x1="142.57" y1="179.43" x2="220.29" y2="179.43" xlink:href="#linear-gradient"/><linearGradient id="linear-gradient-8" x1="246.71" y1="283.57" x2="324.43" y2="283.57" xlink:href="#linear-gradient"/><linearGradient id="linear-gradient-9" x1="247.17" y1="179.89" x2="324.9" y2="179.89" xlink:href="#linear-gradient"/><linearGradient id="linear-gradient-10" x1="143.03" y1="284.04" x2="220.76" y2="284.04" xlink:href="#linear-gradient"/><linearGradient id="linear-gradient-11" x1="170" y1="232.2" x2="297" y2="232.2" xlink:href="#linear-gradient"/><linearGradient id="linear-gradient-12" x1="169.5" y1="232.2" x2="297.5" y2="232.2" xlink:href="#linear-gradient"/></defs><title>Asset 5</title><g id="Layer_2" data-name="Layer 2"><g id="Layer_1-2" data-name="Layer 1"><path class="cls-1" d="M451.55,312.58a231.46,231.46,0,0,0-27.4-213.25,245,245,0,0,0-204.83-2.82A254.93,254.93,0,0,1,451.55,312.58Z"/><path class="cls-2" d="M115.14,138.61a247.23,247.23,0,0,0-7,37.74A255,255,0,0,1,411.49,82.89,232.89,232.89,0,0,0,233,0c-7.12,0-14.17.34-21.13,1A243.1,243.1,0,0,0,115.14,138.61Z"/><path class="cls-3" d="M357,288.73a253.11,253.11,0,0,1-144.17,102,256.06,256.06,0,0,1-66.33,8.79,252.17,252.17,0,0,1-90.77-16.92A232.88,232.88,0,0,0,233,464c7.29,0,14.49-.35,21.61-1A245,245,0,0,0,357,288.73Z"/><path class="cls-4" d="M343.66,152.87a254.94,254.94,0,0,1-68.85,307.4A233.15,233.15,0,0,0,443.6,331.34,245,245,0,0,0,343.66,152.87Z"/><path class="cls-5" d="M121.71,311.87A254.9,254.9,0,0,1,191.55,3.66,233.17,233.17,0,0,0,21.81,133.91,245,245,0,0,0,121.71,311.87Z"/><path class="cls-6" d="M246.05,368.23A255,255,0,0,1,13.92,152.84a231.56,231.56,0,0,0,29,213.37A245,245,0,0,0,246.05,368.23Z"/><circle class="cls-7" cx="181.43" cy="179.43" r="33.86"/><circle class="cls-8" cx="285.57" cy="283.57" r="33.86"/><circle class="cls-9" cx="286.04" cy="179.89" r="33.86"/><circle class="cls-10" cx="181.89" cy="284.04" r="33.86"/><path class="cls-11" d="M275.11,172.69l-21.94,21.94a27.82,27.82,0,0,1-39.34,0l-21.72-21.72a13,13,0,0,0-18-.55,12.82,12.82,0,0,0-.33,18.46l21.94,21.94a27.82,27.82,0,0,1,0,39.34l-21.48,21.48a12.83,12.83,0,0,0,0,18.13h0a12.83,12.83,0,0,0,18.13,0l21.48-21.48a27.82,27.82,0,0,1,39.34,0l21.26,21.26a13,13,0,0,0,18,.54,12.82,12.82,0,0,0,.34-18.45L271.3,252.1a27.82,27.82,0,0,1,0-39.34l21.94-21.94a12.81,12.81,0,0,0,0-18.13h0A12.81,12.81,0,0,0,275.11,172.69Z"/><rect class="cls-12" x="221.67" y="220.13" width="23.67" height="23.67" rx="8.04" transform="translate(1.54 465.46) rotate(-90)"/></g></g></svg>
