<svg xmlns="http://www.w3.org/2000/svg" viewBox="0 0 466 464"><defs><style>.cls-1{fill:#05386b;}.cls-2{fill:none;stroke:#05386b;stroke-miterlimit:10;stroke-width:10px;}</style></defs><title>Asset 13</title><g id="Layer_2" data-name="Layer 2"><g id="Layer_1-2" data-name="Layer 1"><path class="cls-1" d="M451.55,312.58a231.46,231.46,0,0,0-27.4-213.25,245,245,0,0,0-204.83-2.82A254.93,254.93,0,0,1,451.55,312.58Z"/><path class="cls-1" d="M115.14,138.61a247.23,247.23,0,0,0-7,37.74A255,255,0,0,1,411.49,82.89,232.89,232.89,0,0,0,233,0c-7.12,0-14.17.34-21.13,1A243.1,243.1,0,0,0,115.14,138.61Z"/><path class="cls-1" d="M357,288.73a253.11,253.11,0,0,1-144.17,102,256.06,256.06,0,0,1-66.33,8.79,252.17,252.17,0,0,1-90.77-16.92A232.88,232.88,0,0,0,233,464c7.29,0,14.49-.35,21.61-1A245,245,0,0,0,357,288.73Z"/><path class="cls-1" d="M343.66,152.87a254.94,254.94,0,0,1-68.85,307.4A233.15,233.15,0,0,0,443.6,331.34,245,245,0,0,0,343.66,152.87Z"/><path class="cls-1" d="M121.71,311.87A254.9,254.9,0,0,1,191.55,3.66,233.17,233.17,0,0,0,21.81,133.91,245,245,0,0,0,121.71,311.87Z"/><path class="cls-1" d="M246.05,368.23A255,255,0,0,1,13.92,152.84a231.56,231.56,0,0,0,29,213.37A245,245,0,0,0,246.05,368.23Z"/><circle class="cls-2" cx="181.43" cy="179.43" r="33.86" transform="translate(-7.69 8.12) rotate(-2.51)"/><circle class="cls-2" cx="285.57" cy="283.57" r="33.86" transform="translate(-15.46 550.67) rotate(-86.38)"/><circle class="cls-2" cx="286.04" cy="179.89" r="33.86" transform="translate(-27.42 306.08) rotate(-54.09)"/><circle class="cls-2" cx="181.89" cy="284.04" r="33.86" transform="translate(-81.36 73.18) rotate(-18.67)"/><path class="cls-1" d="M271.3,252.1a27.82,27.82,0,0,1,0-39.34l21.94-21.94a12.81,12.81,0,0,0,0-18.13h0a12.81,12.81,0,0,0-18.13,0l-21.94,21.94a27.82,27.82,0,0,1-39.34,0l-21.72-21.72a13,13,0,0,0-18-.55,12.82,12.82,0,0,0-.33,18.46l21.94,21.94a27.82,27.82,0,0,1,0,39.34l-21.48,21.48a12.82,12.82,0,0,0,18.13,18.13l21.48-21.48a27.82,27.82,0,0,1,39.34,0l21.26,21.26a13,13,0,0,0,18,.54,12.82,12.82,0,0,0,.34-18.45Zm-26-16.34a8,8,0,0,1-8,8h-7.6a8,8,0,0,1-8-8v-7.59a8,8,0,0,1,8-8h7.6a8,8,0,0,1,8,8Z"/></g></g></svg>